<?xml version="1.0" standalone="no"?>
<!DOCTYPE svg PUBLIC "-//W3C//DTD SVG 20010904//EN"
 "http://www.w3.org/TR/2001/REC-SVG-20010904/DTD/svg10.dtd">
<svg version="1.0" xmlns="http://www.w3.org/2000/svg"
 width="330.000000pt" height="330.000000pt" viewBox="0 0 330.000000 330.000000"
 preserveAspectRatio="xMidYMid meet">
<metadata>
Created by potrace 1.11, written by Peter Selinger 2001-2013
</metadata>
<g transform="translate(0.000000,330.000000) scale(0.100000,-0.100000)"
fill="#000000" stroke="none">
<path d="M1480 3283 c-144 -21 -234 -41 -334 -74 -600 -196 -1026 -718 -1107
-1354 -16 -134 -6 -380 21 -510 40 -188 148 -462 178 -450 8 3 144 80 301 172
157 91 305 177 328 190 36 21 55 46 129 176 48 84 206 359 351 611 l263 459 0
394 0 393 -52 -1 c-29 -1 -64 -3 -78 -6z"/>
<path d="M1680 2891 l0 -401 147 -253 c80 -138 241 -415 357 -615 l211 -362
335 -192 c184 -105 339 -193 343 -195 11 -6 92 170 127 275 61 185 74 275 74
522 0 212 -1 232 -28 345 -37 156 -65 235 -137 380 -79 160 -171 287 -304 420
-227 227 -487 370 -799 440 -66 14 -166 29 -223 32 l-103 6 0 -402z"/>
<path d="M1415 1200 l-500 -5 -320 -188 c-176 -103 -320 -192 -320 -197 0 -25
141 -205 231 -295 211 -210 472 -357 764 -429 548 -134 1131 27 1529 424 118
117 249 289 231 303 -3 2 -161 92 -352 201 l-347 197 -208 -3 c-114 -2 -433
-5 -708 -8z"/>
</g>
</svg>
